<svg width="91.3" height="93.5" viewBox="0 0 91.3 93.5" xmlns="http://www.w3.org/2000/svg">
  <g id="svgGroup" stroke-linecap="round" fill-rule="evenodd" font-size="9pt" fill="black">
    <path fill='#86bbd8' d="M 9.5 72.7 L 0 72.7 L 26.2 0 L 35.5 0 L 61.7 72.7 L 51.5 72.7 L 31.2 14.1 L 30.5 11.2 L 29.8 14.1 L 18.6 46.2 L 17.5 48.3 L 18.7 48.1 L 32.2 48.1 Q 34.6 48.1 36.225 49.1 Q 37.85 50.1 38.925 51.75 Q 40 53.4 40.7 55.3 L 15.5 55.3 L 9.5 72.7 Z" id="0" vector-effect="non-scaling-stroke"/>
    <path d="M 68.7 93.5 L 64.7 88.4 A 595.121 595.121 0 0 0 68.294 85.406 A 462.827 462.827 0 0 0 71.575 82.625 A 36.268 36.268 0 0 0 75.77 78.416 A 32.009 32.009 0 0 0 76.95 76.925 A 22.07 22.07 0 0 0 79.668 72.047 A 26.746 26.746 0 0 0 80.45 69.85 Q 81.7 65.8 81.7 59.9 L 81.7 0 L 91.3 0 L 91.3 59.9 Q 91.3 66.45 89.725 71.25 A 27.482 27.482 0 0 1 86.258 78.324 A 25.492 25.492 0 0 1 85.2 79.75 A 40.019 40.019 0 0 1 80.565 84.625 A 47.609 47.609 0 0 1 78.075 86.7 A 163.519 163.519 0 0 1 73.644 90.025 A 212.222 212.222 0 0 1 68.7 93.5 Z" id="1" vector-effect="non-scaling-stroke"/>
  </g>
</svg>